<mxfile host="app.diagrams.net" modified="2024-05-03T16:16:37.538Z" agent="Mozilla/5.0 (X11; Linux x86_64) AppleWebKit/537.36 (KHTML, like Gecko) Chrome/123.0.0.0 Safari/537.36" etag="hi5EniA7spNw-91d1zfq" version="24.3.1" type="github">
  <diagram name="Page-1" id="KMla87-xjI7LZ-wWWzqZ">
    <mxGraphModel dx="1554" dy="418" grid="1" gridSize="10" guides="1" tooltips="1" connect="1" arrows="1" fold="1" page="1" pageScale="1" pageWidth="850" pageHeight="1100" math="0" shadow="0">
      <root>
        <mxCell id="0" />
        <mxCell id="1" parent="0" />
        <mxCell id="exMYe-eYut_iKR4kCG4Q-2" value="" style="rounded=0;orthogonalLoop=1;jettySize=auto;html=1;" parent="1" source="exMYe-eYut_iKR4kCG4Q-4" target="exMYe-eYut_iKR4kCG4Q-6" edge="1">
          <mxGeometry relative="1" as="geometry" />
        </mxCell>
        <mxCell id="exMYe-eYut_iKR4kCG4Q-3" style="rounded=0;orthogonalLoop=1;jettySize=auto;html=1;exitX=0.75;exitY=0;exitDx=0;exitDy=0;entryX=0;entryY=1;entryDx=0;entryDy=0;" parent="1" source="exMYe-eYut_iKR4kCG4Q-4" target="exMYe-eYut_iKR4kCG4Q-7" edge="1">
          <mxGeometry relative="1" as="geometry" />
        </mxCell>
        <mxCell id="exMYe-eYut_iKR4kCG4Q-4" value="CUSTOMER&amp;nbsp;" style="whiteSpace=wrap;html=1;align=center;" parent="1" vertex="1">
          <mxGeometry x="-130" y="220" width="100" height="40" as="geometry" />
        </mxCell>
        <mxCell id="exMYe-eYut_iKR4kCG4Q-5" value="Customer_Id" style="ellipse;whiteSpace=wrap;html=1;align=center;fontStyle=4;" parent="1" vertex="1">
          <mxGeometry x="-200" y="80" width="100" height="40" as="geometry" />
        </mxCell>
        <mxCell id="exMYe-eYut_iKR4kCG4Q-6" value="Password&amp;nbsp;" style="ellipse;whiteSpace=wrap;html=1;align=center;" parent="1" vertex="1">
          <mxGeometry x="-80" y="70" width="100" height="40" as="geometry" />
        </mxCell>
        <mxCell id="exMYe-eYut_iKR4kCG4Q-7" value="Address&amp;nbsp;" style="ellipse;whiteSpace=wrap;html=1;align=center;" parent="1" vertex="1">
          <mxGeometry x="30" y="70" width="100" height="40" as="geometry" />
        </mxCell>
        <mxCell id="exMYe-eYut_iKR4kCG4Q-8" value="Registration _date" style="ellipse;whiteSpace=wrap;html=1;align=center;" parent="1" vertex="1">
          <mxGeometry x="150" y="160" width="110" height="40" as="geometry" />
        </mxCell>
        <mxCell id="exMYe-eYut_iKR4kCG4Q-9" value="Name" style="ellipse;whiteSpace=wrap;html=1;align=center;" parent="1" vertex="1">
          <mxGeometry x="-260" y="130" width="100" height="40" as="geometry" />
        </mxCell>
        <mxCell id="exMYe-eYut_iKR4kCG4Q-10" style="rounded=0;orthogonalLoop=1;jettySize=auto;html=1;exitX=0;exitY=0;exitDx=0;exitDy=0;entryX=0.98;entryY=0.675;entryDx=0;entryDy=0;entryPerimeter=0;" parent="1" source="exMYe-eYut_iKR4kCG4Q-4" target="exMYe-eYut_iKR4kCG4Q-9" edge="1">
          <mxGeometry relative="1" as="geometry" />
        </mxCell>
        <mxCell id="exMYe-eYut_iKR4kCG4Q-11" value="" style="rounded=0;orthogonalLoop=1;jettySize=auto;html=1;" parent="1" source="exMYe-eYut_iKR4kCG4Q-15" target="exMYe-eYut_iKR4kCG4Q-17" edge="1">
          <mxGeometry relative="1" as="geometry" />
        </mxCell>
        <mxCell id="exMYe-eYut_iKR4kCG4Q-12" value="" style="rounded=0;orthogonalLoop=1;jettySize=auto;html=1;" parent="1" source="exMYe-eYut_iKR4kCG4Q-15" target="exMYe-eYut_iKR4kCG4Q-22" edge="1">
          <mxGeometry relative="1" as="geometry" />
        </mxCell>
        <mxCell id="exMYe-eYut_iKR4kCG4Q-13" style="rounded=0;orthogonalLoop=1;jettySize=auto;html=1;entryX=0.5;entryY=1;entryDx=0;entryDy=0;" parent="1" source="exMYe-eYut_iKR4kCG4Q-15" target="exMYe-eYut_iKR4kCG4Q-16" edge="1">
          <mxGeometry relative="1" as="geometry" />
        </mxCell>
        <mxCell id="exMYe-eYut_iKR4kCG4Q-14" value="" style="rounded=0;orthogonalLoop=1;jettySize=auto;html=1;" parent="1" source="exMYe-eYut_iKR4kCG4Q-15" target="exMYe-eYut_iKR4kCG4Q-18" edge="1">
          <mxGeometry relative="1" as="geometry" />
        </mxCell>
        <mxCell id="exMYe-eYut_iKR4kCG4Q-15" value="ORDER" style="whiteSpace=wrap;html=1;align=center;direction=east;" parent="1" vertex="1">
          <mxGeometry x="-120" y="370" width="100" height="40" as="geometry" />
        </mxCell>
        <mxCell id="exMYe-eYut_iKR4kCG4Q-16" value="Order_id" style="ellipse;whiteSpace=wrap;html=1;align=center;fontStyle=4;" parent="1" vertex="1">
          <mxGeometry x="170" y="410" width="100" height="40" as="geometry" />
        </mxCell>
        <mxCell id="exMYe-eYut_iKR4kCG4Q-17" value="Status&amp;nbsp;" style="ellipse;whiteSpace=wrap;html=1;align=center;" parent="1" vertex="1">
          <mxGeometry x="110" y="600" width="100" height="40" as="geometry" />
        </mxCell>
        <mxCell id="exMYe-eYut_iKR4kCG4Q-18" value="Order_date" style="ellipse;whiteSpace=wrap;html=1;align=center;" parent="1" vertex="1">
          <mxGeometry x="210" y="550" width="100" height="40" as="geometry" />
        </mxCell>
        <mxCell id="exMYe-eYut_iKR4kCG4Q-19" value="Email" style="ellipse;shape=doubleEllipse;margin=3;whiteSpace=wrap;html=1;align=center;" parent="1" vertex="1">
          <mxGeometry x="-270" y="190" width="100" height="40" as="geometry" />
        </mxCell>
        <mxCell id="exMYe-eYut_iKR4kCG4Q-20" value="Phone_number" style="ellipse;shape=doubleEllipse;margin=3;whiteSpace=wrap;html=1;align=center;" parent="1" vertex="1">
          <mxGeometry x="140" y="70" width="110" height="50" as="geometry" />
        </mxCell>
        <mxCell id="exMYe-eYut_iKR4kCG4Q-21" value="" style="fontSize=12;html=1;endArrow=ERoneToMany;rounded=0;exitX=0.5;exitY=1;exitDx=0;exitDy=0;" parent="1" source="exMYe-eYut_iKR4kCG4Q-4" edge="1">
          <mxGeometry width="100" height="100" relative="1" as="geometry">
            <mxPoint x="70" y="510" as="sourcePoint" />
            <mxPoint x="-80" y="370" as="targetPoint" />
          </mxGeometry>
        </mxCell>
        <mxCell id="exMYe-eYut_iKR4kCG4Q-22" value="Customer _id" style="ellipse;whiteSpace=wrap;html=1;align=center;fontStyle=4;" parent="1" vertex="1">
          <mxGeometry x="50" y="350" width="100" height="40" as="geometry" />
        </mxCell>
        <mxCell id="exMYe-eYut_iKR4kCG4Q-23" value="" style="rounded=0;orthogonalLoop=1;jettySize=auto;html=1;" parent="1" source="exMYe-eYut_iKR4kCG4Q-30" target="exMYe-eYut_iKR4kCG4Q-38" edge="1">
          <mxGeometry relative="1" as="geometry" />
        </mxCell>
        <mxCell id="exMYe-eYut_iKR4kCG4Q-24" value="" style="rounded=0;orthogonalLoop=1;jettySize=auto;html=1;" parent="1" source="exMYe-eYut_iKR4kCG4Q-30" target="exMYe-eYut_iKR4kCG4Q-31" edge="1">
          <mxGeometry relative="1" as="geometry" />
        </mxCell>
        <mxCell id="exMYe-eYut_iKR4kCG4Q-25" style="rounded=0;orthogonalLoop=1;jettySize=auto;html=1;exitX=0;exitY=0;exitDx=0;exitDy=0;entryX=1;entryY=0.5;entryDx=0;entryDy=0;" parent="1" source="exMYe-eYut_iKR4kCG4Q-30" target="exMYe-eYut_iKR4kCG4Q-35" edge="1">
          <mxGeometry relative="1" as="geometry" />
        </mxCell>
        <mxCell id="exMYe-eYut_iKR4kCG4Q-26" style="rounded=0;orthogonalLoop=1;jettySize=auto;html=1;exitX=0.25;exitY=0;exitDx=0;exitDy=0;entryX=1;entryY=1;entryDx=0;entryDy=0;" parent="1" source="exMYe-eYut_iKR4kCG4Q-30" target="exMYe-eYut_iKR4kCG4Q-33" edge="1">
          <mxGeometry relative="1" as="geometry" />
        </mxCell>
        <mxCell id="exMYe-eYut_iKR4kCG4Q-27" style="rounded=0;orthogonalLoop=1;jettySize=auto;html=1;exitX=0.75;exitY=0;exitDx=0;exitDy=0;" parent="1" source="exMYe-eYut_iKR4kCG4Q-30" target="exMYe-eYut_iKR4kCG4Q-32" edge="1">
          <mxGeometry relative="1" as="geometry" />
        </mxCell>
        <mxCell id="exMYe-eYut_iKR4kCG4Q-28" style="rounded=0;orthogonalLoop=1;jettySize=auto;html=1;exitX=1;exitY=0.5;exitDx=0;exitDy=0;entryX=0.5;entryY=1;entryDx=0;entryDy=0;" parent="1" source="exMYe-eYut_iKR4kCG4Q-30" target="exMYe-eYut_iKR4kCG4Q-37" edge="1">
          <mxGeometry relative="1" as="geometry" />
        </mxCell>
        <mxCell id="exMYe-eYut_iKR4kCG4Q-29" style="rounded=0;orthogonalLoop=1;jettySize=auto;html=1;exitX=0.25;exitY=1;exitDx=0;exitDy=0;entryX=1;entryY=0.5;entryDx=0;entryDy=0;" parent="1" source="exMYe-eYut_iKR4kCG4Q-30" target="exMYe-eYut_iKR4kCG4Q-34" edge="1">
          <mxGeometry relative="1" as="geometry" />
        </mxCell>
        <mxCell id="exMYe-eYut_iKR4kCG4Q-30" value="SELLER" style="whiteSpace=wrap;html=1;align=center;" parent="1" vertex="1">
          <mxGeometry x="-450" y="220" width="100" height="40" as="geometry" />
        </mxCell>
        <mxCell id="exMYe-eYut_iKR4kCG4Q-31" value="Password&amp;nbsp;" style="ellipse;whiteSpace=wrap;html=1;align=center;" parent="1" vertex="1">
          <mxGeometry x="-680" y="50" width="100" height="40" as="geometry" />
        </mxCell>
        <mxCell id="exMYe-eYut_iKR4kCG4Q-32" value="Company_name" style="ellipse;whiteSpace=wrap;html=1;align=center;" parent="1" vertex="1">
          <mxGeometry x="-570" y="50" width="100" height="40" as="geometry" />
        </mxCell>
        <mxCell id="exMYe-eYut_iKR4kCG4Q-33" value="Email" style="whiteSpace=wrap;html=1;align=center;shape=doubleEllipse;perimeter=ellipsePerimeter;margin=3;" parent="1" vertex="1">
          <mxGeometry x="-770" y="90" width="100" height="40" as="geometry" />
        </mxCell>
        <mxCell id="exMYe-eYut_iKR4kCG4Q-34" value="Registration _date" style="ellipse;whiteSpace=wrap;html=1;align=center;" parent="1" vertex="1">
          <mxGeometry x="-720" y="260" width="100" height="40" as="geometry" />
        </mxCell>
        <mxCell id="exMYe-eYut_iKR4kCG4Q-35" value="Name" style="ellipse;whiteSpace=wrap;html=1;align=center;" parent="1" vertex="1">
          <mxGeometry x="-800" y="150" width="100" height="40" as="geometry" />
        </mxCell>
        <mxCell id="exMYe-eYut_iKR4kCG4Q-36" value="Address" style="ellipse;whiteSpace=wrap;html=1;align=center;" parent="1" vertex="1">
          <mxGeometry x="-450" y="50" width="100" height="40" as="geometry" />
        </mxCell>
        <mxCell id="exMYe-eYut_iKR4kCG4Q-37" value="Phone_number" style="whiteSpace=wrap;html=1;align=center;shape=doubleEllipse;perimeter=ellipsePerimeter;margin=3;" parent="1" vertex="1">
          <mxGeometry x="-340" y="70" width="100" height="40" as="geometry" />
        </mxCell>
        <mxCell id="exMYe-eYut_iKR4kCG4Q-38" value="Seller_id" style="ellipse;whiteSpace=wrap;html=1;align=center;fontStyle=4;" parent="1" vertex="1">
          <mxGeometry x="-760" y="210" width="100" height="40" as="geometry" />
        </mxCell>
        <mxCell id="exMYe-eYut_iKR4kCG4Q-39" value="" style="fontSize=12;html=1;endArrow=ERoneToMany;rounded=0;exitX=0.5;exitY=1;exitDx=0;exitDy=0;entryX=0.5;entryY=0;entryDx=0;entryDy=0;" parent="1" source="exMYe-eYut_iKR4kCG4Q-30" target="exMYe-eYut_iKR4kCG4Q-47" edge="1">
          <mxGeometry width="100" height="100" relative="1" as="geometry">
            <mxPoint x="-325" y="220" as="sourcePoint" />
            <mxPoint x="-315" y="500" as="targetPoint" />
          </mxGeometry>
        </mxCell>
        <mxCell id="exMYe-eYut_iKR4kCG4Q-40" style="rounded=0;orthogonalLoop=1;jettySize=auto;html=1;exitX=0.25;exitY=0;exitDx=0;exitDy=0;entryX=0.5;entryY=1;entryDx=0;entryDy=0;" parent="1" source="exMYe-eYut_iKR4kCG4Q-47" target="exMYe-eYut_iKR4kCG4Q-54" edge="1">
          <mxGeometry relative="1" as="geometry" />
        </mxCell>
        <mxCell id="exMYe-eYut_iKR4kCG4Q-41" style="rounded=0;orthogonalLoop=1;jettySize=auto;html=1;exitX=0;exitY=0;exitDx=0;exitDy=0;entryX=1;entryY=1;entryDx=0;entryDy=0;" parent="1" source="exMYe-eYut_iKR4kCG4Q-47" target="exMYe-eYut_iKR4kCG4Q-48" edge="1">
          <mxGeometry relative="1" as="geometry" />
        </mxCell>
        <mxCell id="exMYe-eYut_iKR4kCG4Q-42" style="rounded=0;orthogonalLoop=1;jettySize=auto;html=1;exitX=0;exitY=0.25;exitDx=0;exitDy=0;entryX=1;entryY=0.5;entryDx=0;entryDy=0;" parent="1" source="exMYe-eYut_iKR4kCG4Q-47" target="exMYe-eYut_iKR4kCG4Q-49" edge="1">
          <mxGeometry relative="1" as="geometry" />
        </mxCell>
        <mxCell id="exMYe-eYut_iKR4kCG4Q-43" style="rounded=0;orthogonalLoop=1;jettySize=auto;html=1;exitX=0;exitY=0.25;exitDx=0;exitDy=0;entryX=1;entryY=0.5;entryDx=0;entryDy=0;" parent="1" source="exMYe-eYut_iKR4kCG4Q-47" target="exMYe-eYut_iKR4kCG4Q-50" edge="1">
          <mxGeometry relative="1" as="geometry" />
        </mxCell>
        <mxCell id="exMYe-eYut_iKR4kCG4Q-44" style="rounded=0;orthogonalLoop=1;jettySize=auto;html=1;exitX=0;exitY=0.5;exitDx=0;exitDy=0;entryX=1;entryY=0.5;entryDx=0;entryDy=0;" parent="1" source="exMYe-eYut_iKR4kCG4Q-47" target="exMYe-eYut_iKR4kCG4Q-51" edge="1">
          <mxGeometry relative="1" as="geometry" />
        </mxCell>
        <mxCell id="exMYe-eYut_iKR4kCG4Q-45" style="rounded=0;orthogonalLoop=1;jettySize=auto;html=1;exitX=0;exitY=0.75;exitDx=0;exitDy=0;entryX=1;entryY=0;entryDx=0;entryDy=0;" parent="1" source="exMYe-eYut_iKR4kCG4Q-47" target="exMYe-eYut_iKR4kCG4Q-53" edge="1">
          <mxGeometry relative="1" as="geometry" />
        </mxCell>
        <mxCell id="exMYe-eYut_iKR4kCG4Q-46" style="rounded=0;orthogonalLoop=1;jettySize=auto;html=1;exitX=0;exitY=1;exitDx=0;exitDy=0;entryX=1;entryY=0;entryDx=0;entryDy=0;" parent="1" source="exMYe-eYut_iKR4kCG4Q-47" target="exMYe-eYut_iKR4kCG4Q-52" edge="1">
          <mxGeometry relative="1" as="geometry" />
        </mxCell>
        <mxCell id="exMYe-eYut_iKR4kCG4Q-47" value="PRODUCT&amp;nbsp;" style="whiteSpace=wrap;html=1;align=center;" parent="1" vertex="1">
          <mxGeometry x="-450" y="400" width="100" height="40" as="geometry" />
        </mxCell>
        <mxCell id="exMYe-eYut_iKR4kCG4Q-48" value="Category_id" style="whiteSpace=wrap;html=1;align=center;shape=doubleEllipse;perimeter=ellipsePerimeter;margin=3;" parent="1" vertex="1">
          <mxGeometry x="-680" y="340" width="100" height="40" as="geometry" />
        </mxCell>
        <mxCell id="exMYe-eYut_iKR4kCG4Q-49" value="Seller_id" style="whiteSpace=wrap;html=1;align=center;shape=doubleEllipse;perimeter=ellipsePerimeter;margin=3;" parent="1" vertex="1">
          <mxGeometry x="-750" y="380" width="100" height="40" as="geometry" />
        </mxCell>
        <mxCell id="exMYe-eYut_iKR4kCG4Q-50" value="Stock _quantity&amp;nbsp;" style="ellipse;whiteSpace=wrap;html=1;align=center;" parent="1" vertex="1">
          <mxGeometry x="-800" y="430" width="100" height="40" as="geometry" />
        </mxCell>
        <mxCell id="exMYe-eYut_iKR4kCG4Q-51" value="Price&amp;nbsp;" style="ellipse;whiteSpace=wrap;html=1;align=center;" parent="1" vertex="1">
          <mxGeometry x="-800" y="490" width="100" height="40" as="geometry" />
        </mxCell>
        <mxCell id="exMYe-eYut_iKR4kCG4Q-52" value="description&amp;nbsp;" style="ellipse;whiteSpace=wrap;html=1;align=center;" parent="1" vertex="1">
          <mxGeometry x="-580" y="530" width="100" height="40" as="geometry" />
        </mxCell>
        <mxCell id="exMYe-eYut_iKR4kCG4Q-53" value="Title&amp;nbsp;" style="ellipse;whiteSpace=wrap;html=1;align=center;" parent="1" vertex="1">
          <mxGeometry x="-700" y="530" width="100" height="40" as="geometry" />
        </mxCell>
        <mxCell id="exMYe-eYut_iKR4kCG4Q-54" value="Product_id" style="ellipse;whiteSpace=wrap;html=1;align=center;fontStyle=4;" parent="1" vertex="1">
          <mxGeometry x="-580" y="320" width="100" height="40" as="geometry" />
        </mxCell>
        <mxCell id="exMYe-eYut_iKR4kCG4Q-55" value="" style="rounded=0;orthogonalLoop=1;jettySize=auto;html=1;" parent="1" source="exMYe-eYut_iKR4kCG4Q-57" target="exMYe-eYut_iKR4kCG4Q-58" edge="1">
          <mxGeometry relative="1" as="geometry" />
        </mxCell>
        <mxCell id="exMYe-eYut_iKR4kCG4Q-56" value="" style="rounded=0;orthogonalLoop=1;jettySize=auto;html=1;" parent="1" source="exMYe-eYut_iKR4kCG4Q-57" target="exMYe-eYut_iKR4kCG4Q-59" edge="1">
          <mxGeometry relative="1" as="geometry" />
        </mxCell>
        <mxCell id="exMYe-eYut_iKR4kCG4Q-57" value="CATEGORY&amp;nbsp;" style="whiteSpace=wrap;html=1;align=center;" parent="1" vertex="1">
          <mxGeometry x="-450" y="580" width="100" height="40" as="geometry" />
        </mxCell>
        <mxCell id="exMYe-eYut_iKR4kCG4Q-58" value="Name" style="ellipse;whiteSpace=wrap;html=1;align=center;" parent="1" vertex="1">
          <mxGeometry x="-590" y="740" width="100" height="40" as="geometry" />
        </mxCell>
        <mxCell id="exMYe-eYut_iKR4kCG4Q-59" value="Category_id" style="ellipse;whiteSpace=wrap;html=1;align=center;fontStyle=4;" parent="1" vertex="1">
          <mxGeometry x="-480" y="740" width="100" height="40" as="geometry" />
        </mxCell>
        <mxCell id="exMYe-eYut_iKR4kCG4Q-60" value="" style="endArrow=none;html=1;rounded=0;exitX=0.5;exitY=1;exitDx=0;exitDy=0;entryX=0.5;entryY=0;entryDx=0;entryDy=0;" parent="1" source="exMYe-eYut_iKR4kCG4Q-47" target="exMYe-eYut_iKR4kCG4Q-57" edge="1">
          <mxGeometry relative="1" as="geometry">
            <mxPoint x="-290" y="660" as="sourcePoint" />
            <mxPoint x="-130" y="660" as="targetPoint" />
          </mxGeometry>
        </mxCell>
        <mxCell id="exMYe-eYut_iKR4kCG4Q-61" value="" style="rounded=0;orthogonalLoop=1;jettySize=auto;html=1;" parent="1" source="exMYe-eYut_iKR4kCG4Q-66" target="exMYe-eYut_iKR4kCG4Q-70" edge="1">
          <mxGeometry relative="1" as="geometry" />
        </mxCell>
        <mxCell id="exMYe-eYut_iKR4kCG4Q-62" style="rounded=0;orthogonalLoop=1;jettySize=auto;html=1;exitX=0.5;exitY=1;exitDx=0;exitDy=0;entryX=1;entryY=0;entryDx=0;entryDy=0;" parent="1" source="exMYe-eYut_iKR4kCG4Q-66" target="exMYe-eYut_iKR4kCG4Q-68" edge="1">
          <mxGeometry relative="1" as="geometry" />
        </mxCell>
        <mxCell id="exMYe-eYut_iKR4kCG4Q-63" value="" style="rounded=0;orthogonalLoop=1;jettySize=auto;html=1;entryX=1;entryY=0;entryDx=0;entryDy=0;" parent="1" source="exMYe-eYut_iKR4kCG4Q-66" target="exMYe-eYut_iKR4kCG4Q-69" edge="1">
          <mxGeometry relative="1" as="geometry">
            <mxPoint x="-50" y="630" as="targetPoint" />
          </mxGeometry>
        </mxCell>
        <mxCell id="exMYe-eYut_iKR4kCG4Q-64" style="rounded=0;orthogonalLoop=1;jettySize=auto;html=1;exitX=0;exitY=0.25;exitDx=0;exitDy=0;entryX=1;entryY=0;entryDx=0;entryDy=0;" parent="1" source="exMYe-eYut_iKR4kCG4Q-66" target="exMYe-eYut_iKR4kCG4Q-67" edge="1">
          <mxGeometry relative="1" as="geometry" />
        </mxCell>
        <mxCell id="exMYe-eYut_iKR4kCG4Q-65" value="" style="rounded=0;orthogonalLoop=1;jettySize=auto;html=1;" parent="1" source="exMYe-eYut_iKR4kCG4Q-66" target="exMYe-eYut_iKR4kCG4Q-71" edge="1">
          <mxGeometry relative="1" as="geometry" />
        </mxCell>
        <mxCell id="exMYe-eYut_iKR4kCG4Q-66" value="ORDER_ITEM" style="whiteSpace=wrap;html=1;align=center;" parent="1" vertex="1">
          <mxGeometry x="-120" y="590" width="100" height="40" as="geometry" />
        </mxCell>
        <mxCell id="exMYe-eYut_iKR4kCG4Q-67" value="Order_item_id" style="ellipse;whiteSpace=wrap;html=1;align=center;fontStyle=4;" parent="1" vertex="1">
          <mxGeometry x="-190" y="640" width="100" height="40" as="geometry" />
        </mxCell>
        <mxCell id="exMYe-eYut_iKR4kCG4Q-68" value="Product_item" style="ellipse;whiteSpace=wrap;html=1;align=center;fontStyle=4;" parent="1" vertex="1">
          <mxGeometry x="-90" y="720" width="100" height="40" as="geometry" />
        </mxCell>
        <mxCell id="exMYe-eYut_iKR4kCG4Q-69" value="Order_id" style="ellipse;whiteSpace=wrap;html=1;align=center;fontStyle=4;" parent="1" vertex="1">
          <mxGeometry x="-140" y="680" width="100" height="40" as="geometry" />
        </mxCell>
        <mxCell id="exMYe-eYut_iKR4kCG4Q-70" value="Quantity" style="ellipse;whiteSpace=wrap;html=1;align=center;" parent="1" vertex="1">
          <mxGeometry x="20" y="720" width="100" height="40" as="geometry" />
        </mxCell>
        <mxCell id="exMYe-eYut_iKR4kCG4Q-71" value="Price" style="ellipse;whiteSpace=wrap;html=1;align=center;" parent="1" vertex="1">
          <mxGeometry x="120" y="680" width="100" height="40" as="geometry" />
        </mxCell>
        <mxCell id="exMYe-eYut_iKR4kCG4Q-72" value="" style="fontSize=12;html=1;endArrow=ERoneToMany;rounded=0;exitX=0.5;exitY=0;exitDx=0;exitDy=0;entryX=0.5;entryY=1;entryDx=0;entryDy=0;" parent="1" source="exMYe-eYut_iKR4kCG4Q-66" target="exMYe-eYut_iKR4kCG4Q-15" edge="1">
          <mxGeometry width="100" height="100" relative="1" as="geometry">
            <mxPoint x="-110" y="640" as="sourcePoint" />
            <mxPoint x="-10" y="540" as="targetPoint" />
          </mxGeometry>
        </mxCell>
        <mxCell id="exMYe-eYut_iKR4kCG4Q-73" value="" style="fontSize=12;html=1;endArrow=ERoneToMany;rounded=0;exitX=1;exitY=0.5;exitDx=0;exitDy=0;entryX=0;entryY=0;entryDx=0;entryDy=0;" parent="1" source="exMYe-eYut_iKR4kCG4Q-47" target="exMYe-eYut_iKR4kCG4Q-66" edge="1">
          <mxGeometry width="100" height="100" relative="1" as="geometry">
            <mxPoint x="-120" y="510" as="sourcePoint" />
            <mxPoint x="-20" y="410" as="targetPoint" />
          </mxGeometry>
        </mxCell>
        <mxCell id="exMYe-eYut_iKR4kCG4Q-74" style="rounded=0;orthogonalLoop=1;jettySize=auto;html=1;exitX=1;exitY=0;exitDx=0;exitDy=0;entryX=0.22;entryY=0.95;entryDx=0;entryDy=0;entryPerimeter=0;" parent="1" source="exMYe-eYut_iKR4kCG4Q-30" target="exMYe-eYut_iKR4kCG4Q-36" edge="1">
          <mxGeometry relative="1" as="geometry" />
        </mxCell>
        <mxCell id="exMYe-eYut_iKR4kCG4Q-75" style="rounded=0;orthogonalLoop=1;jettySize=auto;html=1;exitX=0.25;exitY=0;exitDx=0;exitDy=0;entryX=0.68;entryY=1.025;entryDx=0;entryDy=0;entryPerimeter=0;" parent="1" source="exMYe-eYut_iKR4kCG4Q-4" target="exMYe-eYut_iKR4kCG4Q-5" edge="1">
          <mxGeometry relative="1" as="geometry" />
        </mxCell>
        <mxCell id="exMYe-eYut_iKR4kCG4Q-76" style="rounded=0;orthogonalLoop=1;jettySize=auto;html=1;entryX=0;entryY=1;entryDx=0;entryDy=0;" parent="1" source="exMYe-eYut_iKR4kCG4Q-4" target="exMYe-eYut_iKR4kCG4Q-20" edge="1">
          <mxGeometry relative="1" as="geometry" />
        </mxCell>
        <mxCell id="exMYe-eYut_iKR4kCG4Q-77" style="rounded=0;orthogonalLoop=1;jettySize=auto;html=1;exitX=0;exitY=0.75;exitDx=0;exitDy=0;entryX=0.969;entryY=0.735;entryDx=0;entryDy=0;entryPerimeter=0;" parent="1" source="exMYe-eYut_iKR4kCG4Q-4" target="exMYe-eYut_iKR4kCG4Q-19" edge="1">
          <mxGeometry relative="1" as="geometry" />
        </mxCell>
        <mxCell id="exMYe-eYut_iKR4kCG4Q-78" style="rounded=0;orthogonalLoop=1;jettySize=auto;html=1;exitX=1;exitY=0.5;exitDx=0;exitDy=0;entryX=0;entryY=1;entryDx=0;entryDy=0;" parent="1" target="exMYe-eYut_iKR4kCG4Q-8" edge="1" source="exMYe-eYut_iKR4kCG4Q-4">
          <mxGeometry relative="1" as="geometry">
            <mxPoint x="10" y="250" as="sourcePoint" />
            <mxPoint x="223.30000000000018" y="262.32000000000005" as="targetPoint" />
          </mxGeometry>
        </mxCell>
      </root>
    </mxGraphModel>
  </diagram>
</mxfile>
